# xmcd CD database file generated by OrangeCD 6.4
#
# Track frame offsets:
#	150
#	11523
#	18754
#	25432
#	30795
#	43256
#	52087
#	65736
#	75039
#	88256
#	102282
#	118666
#
# Disc length: 1764 seconds
#
# Revision: 0
# Processed by: cddbd v1.5.2PL0 Copyright (c) Steve Scherf et al.
# Submitted via: OrangeCD 6.4
#
DISCID=8d06e20c
DTITLE=Georges Brassens - Chanson pour l'auvergnat
DYEAR=2007
DGENRE=
TTITLE0=Chanson pour l'auvergnat
TTITLE1=Le petit joueur de fluteau
TTITLE2=Le parapluie
TTITLE3=A l'ombre du coeur de mamie
TTITLE4=La cane de Jeanne
TTITLE5=Pauvre Martin
TTITLE6=Auprès de mon arbre
TTITLE7=Les sabots d'Hélène
TTITLE8=Au bois de moncoeur
TTITLE9=Le vent
TTITLE10=Bonhomme
TTITLE11=Je rejoindrai ma belle
EXTD=
EXTT0=
EXTT1=
EXTT2=
EXTT3=
EXTT4=
EXTT5=
EXTT6=
EXTT7=
EXTT8=
EXTT9=
EXTT10=
EXTT11=
PLAYORDER=
